<?xml version="1.0" standalone="no"?>
<!DOCTYPE svg PUBLIC "-//W3C//DTD SVG 20010904//EN"
 "http://www.w3.org/TR/2001/REC-SVG-20010904/DTD/svg10.dtd">
<svg version="1.0" xmlns="http://www.w3.org/2000/svg"
 width="236.000000pt" height="236.000000pt" viewBox="0 0 236.000000 236.000000"
 preserveAspectRatio="xMidYMid meet">
<metadata>
Created by potrace 1.14, written by Peter Selinger 2001-2017
</metadata>
<g transform="translate(0.000000,236.000000) scale(0.100000,-0.100000)"
fill="#000000" stroke="none">
<path d="M1110 1904 c-173 -37 -298 -103 -410 -215 -100 -100 -143 -167 -192
-304 -25 -68 -30 -100 -35 -217 -6 -137 -3 -164 34 -278 19 -60 60 -140 84
-166 10 -11 17 -23 14 -26 -10 -10 105 -127 183 -186 91 -70 115 -84 172 -102
25 -7 62 -22 82 -33 34 -18 49 -19 195 -14 88 4 181 13 209 21 75 21 208 90
273 141 53 42 171 166 171 180 0 4 10 20 21 37 65 91 109 254 109 403 0 215
-82 399 -251 560 -181 173 -431 248 -659 199z"/>
</g>
</svg>
